<svg id="visual" viewBox="0 0 900 600" width="900" height="600" xmlns="http://www.w3.org/2000/svg" xmlns:xlink="http://www.w3.org/1999/xlink" version="1.1"><g transform="translate(391.1253562749936 320.27089074498014)"><path d="M162.5 -224.8C242.1 -201.7 359.8 -209.9 388.8 -170.5C417.7 -131.1 357.8 -44.1 325.1 32.8C292.3 109.8 286.7 176.7 252.8 223C218.8 269.2 156.4 294.8 97.7 294.7C39 294.6 -16.2 268.7 -95.8 270.7C-175.5 272.7 -279.7 302.7 -278.7 263.8C-277.6 224.9 -171.3 117.1 -135.6 48.7C-100 -19.7 -135.1 -48.7 -159 -104.4C-183 -160 -195.8 -242.4 -167.5 -288.9C-139.1 -335.5 -69.6 -346.2 -14.1 -324.4C41.4 -302.5 82.9 -248 162.5 -224.8" fill="#6600FF"></path></g></svg>